<svg width="55" height="45" viewBox="0 0 55 45" fill="none" xmlns="http://www.w3.org/2000/svg">
<path d="M20.4388 17.0629H13.6085V23.8932H20.4388V17.0629Z" fill="#231F20"/>
<path d="M27.2691 17.0629H20.4388V23.8932H27.2691V17.0629Z" fill="#FDEADD"/>
<path d="M34.0473 17.0629H27.217V23.8932H34.0473V17.0629Z" fill="#FDEADD"/>
<path d="M20.4388 23.8932H13.6085V30.7236H20.4388V23.8932Z" fill="#FDEADD"/>
<path d="M27.2691 23.8932H20.4388V30.7236H27.2691V23.8932Z" fill="#FDEADD"/>
<path d="M34.0473 23.8932H27.217V30.7236H34.0473V23.8932Z" fill="#FDEADD"/>
<path d="M20.4388 10.2848H13.6085V17.1151H20.4388V10.2848Z" fill="#FDEADD"/>
<path d="M13.3478 10.2848H6.51746V17.1151H13.3478V10.2848Z" fill="#F2D6C4"/>
<path d="M13.3478 17.0629H6.51746V23.8932H13.3478V17.0629Z" fill="#F2D6C4"/>
<path d="M6.8303 23.8932H0V30.7236H6.8303V23.8932Z" fill="#F1BCA0"/>
<path d="M54.4861 23.8932H47.6558V30.7236H54.4861V23.8932Z" fill="#F2D6C4"/>
<path d="M13.3478 23.8932H6.51746V30.7236H13.3478V23.8932Z" fill="#F2D6C4"/>
<path d="M47.6557 10.2848H40.8254V17.1151H47.6557V10.2848Z" fill="#FDEADD"/>
<path d="M47.6557 17.0629H40.8254V23.8932H47.6557V17.0629Z" fill="#FDEADD"/>
<path d="M47.6557 23.8932H40.8254V30.7236H47.6557V23.8932Z" fill="#FDEADD"/>
<path d="M27.2691 10.2848H20.4388V17.1151H27.2691V10.2848Z" fill="#FDEADD"/>
<path d="M34.0473 10.2848H27.217V17.1151H34.0473V10.2848Z" fill="#FDEADD"/>
<path d="M20.4388 3.45447H13.6085V10.2848H20.4388V3.45447Z" fill="#FDEADD"/>
<path d="M27.2691 3.45447H20.4388V10.2848H27.2691V3.45447Z" fill="#FDEADD"/>
<path d="M34.0473 3.45447H27.217V10.2848H34.0473V3.45447Z" fill="#FDEADD"/>
<path d="M40.8776 17.0629H34.0472V23.8932H40.8776V17.0629Z" fill="#231F20"/>
<path d="M40.8776 23.8932H34.0472V30.7236H40.8776V23.8932Z" fill="#FDEADD"/>
<path d="M20.1781 30.6714H13.3478V37.5017H20.1781V30.6714Z" fill="#FDEADD"/>
<path d="M13.3478 30.6714H6.51746V37.5017H13.3478V30.6714Z" fill="#F2D6C4"/>
<path d="M27.2691 30.6714H20.4388V37.5017H27.2691V30.6714Z" fill="#FDEADD"/>
<path d="M34.0473 30.6714H27.217V37.5017H34.0473V30.6714Z" fill="white"/>
<path d="M27.2691 30.6714H20.4388V37.5017H27.2691V30.6714Z" fill="white"/>
<path d="M40.8776 30.6714H34.0472V37.5017H40.8776V30.6714Z" fill="#FDEADD"/>
<path d="M20.4388 37.5017H13.6085V44.332H20.4388V37.5017Z" fill="#F2D6C4"/>
<path d="M27.2691 37.5017H20.4388V44.332H27.2691V37.5017Z" fill="#FDEADD"/>
<path d="M34.0473 37.5017H27.217V44.332H34.0473V37.5017Z" fill="#FDEADD"/>
<path d="M40.8776 37.5017H34.0472V44.332H40.8776V37.5017Z" fill="#FDEADD"/>
<path d="M47.6557 30.6714H40.8254V37.5017H47.6557V30.6714Z" fill="#FDEADD"/>
<path d="M40.8776 10.2848H34.0472V17.1151H40.8776V10.2848Z" fill="#FDEADD"/>
<path d="M40.8776 3.45447H34.0472V10.2848H40.8776V3.45447Z" fill="#FDEADD"/>
<rect x="24.5476" width="1.41319" height="6.90892" fill="#824B4B"/>
<rect x="27.845" y="1.72723" width="1.41319" height="5.18169" fill="#824B4B"/>
</svg>
